# xmcd
#
# Track frame offsets:
#	150
#	14519
#	26851
#	43005
#	64830
#	84374
#	98456
#	113466
#	131570
#	152052
#	179227
#	200339
#	217526
#	236423
#	258895
#	275772
#	291984
#	315647
#
# Disc length: 4434 seconds
#
# Revision: 0
# Processed by: cddbd v1.4PL0 Copyright (c) Steve Scherf et al.
# Submitted via: dBpowerAMP V4.0
#
DISCID=f8115012
DTITLE=Various Artist - Rythm and Black
DYEAR=1900
DGENRE=R&B
TTITLE0=Ray Charles - I wish you were here tonight
TTITLE1=Otis Redding - (Sittin' on) The dock of the bay
TTITLE2=Aretha Franklin - Say a little prayer
TTITLE3=Billy Paul - Me and Mrs Jones
TTITLE4=Bill Withers - Lean on me
TTITLE5=Aaron Neville - Telml it like it is
TTITLE6=Isaac Hayes - Theme from Shaft
TTITLE7=Patti Labelle - Lady Marmelade
TTITLE8=Esther Phillips - What a diff'rence a day makes
TTITLE9=The Jacksons Can you feel it
TTITLE10=Earth Wind and Fire - Fantasy
TTITLE11=Luther Vandross - Never too much
TTITLE12=Marvin Gaye - Sexual healing
TTITLE13=Sade - Smooth operator
TTITLE14=The Chimes - I still haven't found what I'm looking for
TTITLE15=Terence Trent d'Arby - Wishing well
TTITLE16=The Pasadenas - Tribute (Right on)
TTITLE17=Paul Johnson - No more tomorrows
EXTD=
EXTT0=
EXTT1=
EXTT2=
EXTT3=
EXTT4=
EXTT5=
EXTT6=
EXTT7=
EXTT8=
EXTT9=
EXTT10=
EXTT11=
EXTT12=
EXTT13=
EXTT14=
EXTT15=
EXTT16=
EXTT17=
PLAYORDER=
